<mxfile host="app.diagrams.net" agent="Mozilla/5.0 (Macintosh; Intel Mac OS X 10_15_7) AppleWebKit/537.36 (KHTML, like Gecko) Chrome/131.0.0.0 Safari/537.36" version="26.0.6" pages="4">
  <diagram name="第 1 页" id="rL479KC2GP0uy-LAvAyu">
    <mxGraphModel dx="2342" dy="2160" grid="1" gridSize="10" guides="1" tooltips="1" connect="1" arrows="1" fold="1" page="1" pageScale="1" pageWidth="827" pageHeight="1169" math="0" shadow="0">
      <root>
        <mxCell id="0" />
        <mxCell id="1" parent="0" />
        <mxCell id="7Kl0M0ftxX6nWomnp8ho-18" value="" style="rounded=0;whiteSpace=wrap;html=1;fontSize=16;" vertex="1" parent="1">
          <mxGeometry x="-100" y="930" width="540" height="80" as="geometry" />
        </mxCell>
        <mxCell id="YQ1YVP4Hbw2NyQgz9QkE-1" value="" style="rounded=0;whiteSpace=wrap;html=1;fontSize=16;" parent="1" vertex="1">
          <mxGeometry x="80" y="100" width="240" height="370" as="geometry" />
        </mxCell>
        <mxCell id="YQ1YVP4Hbw2NyQgz9QkE-2" value="呼和浩特资源池" style="text;html=1;align=center;verticalAlign=middle;whiteSpace=wrap;rounded=0;fontSize=16;" parent="1" vertex="1">
          <mxGeometry x="85" y="100" width="120" height="30" as="geometry" />
        </mxCell>
        <mxCell id="YQ1YVP4Hbw2NyQgz9QkE-3" value="" style="rounded=0;whiteSpace=wrap;html=1;fontSize=16;" parent="1" vertex="1">
          <mxGeometry x="490" y="100" width="250" height="370" as="geometry" />
        </mxCell>
        <mxCell id="YQ1YVP4Hbw2NyQgz9QkE-4" value="苏州资源池" style="text;html=1;align=center;verticalAlign=middle;whiteSpace=wrap;rounded=0;fontSize=16;" parent="1" vertex="1">
          <mxGeometry x="490" y="100" width="100" height="30" as="geometry" />
        </mxCell>
        <mxCell id="YQ1YVP4Hbw2NyQgz9QkE-5" value="" style="rounded=0;whiteSpace=wrap;html=1;fontSize=16;" parent="1" vertex="1">
          <mxGeometry x="-100" y="600" width="540" height="310" as="geometry" />
        </mxCell>
        <mxCell id="YQ1YVP4Hbw2NyQgz9QkE-6" value="洛阳在线机房" style="text;html=1;align=center;verticalAlign=middle;whiteSpace=wrap;rounded=0;fontSize=16;" parent="1" vertex="1">
          <mxGeometry x="-100" y="600" width="60" height="30" as="geometry" />
        </mxCell>
        <mxCell id="YQ1YVP4Hbw2NyQgz9QkE-14" style="edgeStyle=orthogonalEdgeStyle;rounded=0;orthogonalLoop=1;jettySize=auto;html=1;fontSize=16;" parent="1" source="YQ1YVP4Hbw2NyQgz9QkE-7" target="YQ1YVP4Hbw2NyQgz9QkE-13" edge="1">
          <mxGeometry relative="1" as="geometry" />
        </mxCell>
        <mxCell id="YQ1YVP4Hbw2NyQgz9QkE-7" value="IT工地" style="rounded=1;whiteSpace=wrap;html=1;fontSize=16;" parent="1" vertex="1">
          <mxGeometry x="100" y="-80" width="120" height="60" as="geometry" />
        </mxCell>
        <mxCell id="YQ1YVP4Hbw2NyQgz9QkE-15" style="edgeStyle=orthogonalEdgeStyle;rounded=0;orthogonalLoop=1;jettySize=auto;html=1;entryX=0.75;entryY=0;entryDx=0;entryDy=0;fontSize=16;" parent="1" source="YQ1YVP4Hbw2NyQgz9QkE-8" target="YQ1YVP4Hbw2NyQgz9QkE-13" edge="1">
          <mxGeometry relative="1" as="geometry" />
        </mxCell>
        <mxCell id="YQ1YVP4Hbw2NyQgz9QkE-8" value="百合渠道" style="rounded=1;whiteSpace=wrap;html=1;fontSize=16;" parent="1" vertex="1">
          <mxGeometry x="260" y="-80" width="120" height="60" as="geometry" />
        </mxCell>
        <mxCell id="YQ1YVP4Hbw2NyQgz9QkE-35" style="edgeStyle=orthogonalEdgeStyle;rounded=0;orthogonalLoop=1;jettySize=auto;html=1;entryX=0;entryY=0.25;entryDx=0;entryDy=0;dashed=1;strokeColor=#FF0000;fontSize=16;" parent="1" source="YQ1YVP4Hbw2NyQgz9QkE-11" target="YQ1YVP4Hbw2NyQgz9QkE-21" edge="1">
          <mxGeometry relative="1" as="geometry" />
        </mxCell>
        <mxCell id="YQ1YVP4Hbw2NyQgz9QkE-11" value="省Boss系统" style="rounded=0;whiteSpace=wrap;html=1;fontSize=16;" parent="1" vertex="1">
          <mxGeometry x="-230" y="110" width="120" height="40" as="geometry" />
        </mxCell>
        <mxCell id="YQ1YVP4Hbw2NyQgz9QkE-32" style="edgeStyle=orthogonalEdgeStyle;rounded=0;orthogonalLoop=1;jettySize=auto;html=1;entryX=0.5;entryY=0;entryDx=0;entryDy=0;fontSize=16;" parent="1" source="YQ1YVP4Hbw2NyQgz9QkE-13" target="YQ1YVP4Hbw2NyQgz9QkE-18" edge="1">
          <mxGeometry relative="1" as="geometry" />
        </mxCell>
        <mxCell id="YQ1YVP4Hbw2NyQgz9QkE-13" value="ummp-gateway" style="rounded=0;whiteSpace=wrap;html=1;fontSize=16;" parent="1" vertex="1">
          <mxGeometry x="110" y="140" width="200" height="40" as="geometry" />
        </mxCell>
        <mxCell id="YQ1YVP4Hbw2NyQgz9QkE-33" value="" style="edgeStyle=orthogonalEdgeStyle;rounded=0;orthogonalLoop=1;jettySize=auto;html=1;fontSize=16;" parent="1" source="YQ1YVP4Hbw2NyQgz9QkE-17" target="YQ1YVP4Hbw2NyQgz9QkE-20" edge="1">
          <mxGeometry relative="1" as="geometry" />
        </mxCell>
        <mxCell id="YQ1YVP4Hbw2NyQgz9QkE-17" value="card" style="rounded=0;whiteSpace=wrap;html=1;fontSize=16;" parent="1" vertex="1">
          <mxGeometry x="110" y="220" width="80" height="40" as="geometry" />
        </mxCell>
        <mxCell id="YQ1YVP4Hbw2NyQgz9QkE-34" value="" style="edgeStyle=orthogonalEdgeStyle;rounded=0;orthogonalLoop=1;jettySize=auto;html=1;fontSize=16;" parent="1" source="YQ1YVP4Hbw2NyQgz9QkE-18" target="YQ1YVP4Hbw2NyQgz9QkE-20" edge="1">
          <mxGeometry relative="1" as="geometry" />
        </mxCell>
        <mxCell id="YQ1YVP4Hbw2NyQgz9QkE-18" value="pkg" style="rounded=0;whiteSpace=wrap;html=1;fontSize=16;" parent="1" vertex="1">
          <mxGeometry x="200" y="220" width="80" height="40" as="geometry" />
        </mxCell>
        <mxCell id="YQ1YVP4Hbw2NyQgz9QkE-39" style="edgeStyle=orthogonalEdgeStyle;rounded=0;orthogonalLoop=1;jettySize=auto;html=1;entryX=0.75;entryY=0;entryDx=0;entryDy=0;exitX=0.75;exitY=1;exitDx=0;exitDy=0;dashed=1;dashPattern=8 8;fontSize=16;" parent="1" source="YQ1YVP4Hbw2NyQgz9QkE-19" target="YQ1YVP4Hbw2NyQgz9QkE-20" edge="1">
          <mxGeometry relative="1" as="geometry" />
        </mxCell>
        <mxCell id="YQ1YVP4Hbw2NyQgz9QkE-19" value="buy" style="rounded=0;whiteSpace=wrap;html=1;fontSize=16;" parent="1" vertex="1">
          <mxGeometry x="110" y="290" width="170" height="40" as="geometry" />
        </mxCell>
        <mxCell id="YQ1YVP4Hbw2NyQgz9QkE-25" style="edgeStyle=orthogonalEdgeStyle;rounded=0;orthogonalLoop=1;jettySize=auto;html=1;fontSize=16;" parent="1" source="YQ1YVP4Hbw2NyQgz9QkE-20" target="YQ1YVP4Hbw2NyQgz9QkE-21" edge="1">
          <mxGeometry relative="1" as="geometry" />
        </mxCell>
        <mxCell id="YQ1YVP4Hbw2NyQgz9QkE-37" style="edgeStyle=orthogonalEdgeStyle;rounded=0;orthogonalLoop=1;jettySize=auto;html=1;exitX=0.25;exitY=0;exitDx=0;exitDy=0;entryX=0.25;entryY=1;entryDx=0;entryDy=0;dashed=1;dashPattern=8 8;fontSize=16;" parent="1" source="YQ1YVP4Hbw2NyQgz9QkE-20" target="YQ1YVP4Hbw2NyQgz9QkE-19" edge="1">
          <mxGeometry relative="1" as="geometry" />
        </mxCell>
        <mxCell id="YQ1YVP4Hbw2NyQgz9QkE-45" style="edgeStyle=orthogonalEdgeStyle;rounded=0;orthogonalLoop=1;jettySize=auto;html=1;entryX=0.25;entryY=0;entryDx=0;entryDy=0;fontSize=16;" parent="1" source="YQ1YVP4Hbw2NyQgz9QkE-20" target="YQ1YVP4Hbw2NyQgz9QkE-41" edge="1">
          <mxGeometry relative="1" as="geometry" />
        </mxCell>
        <mxCell id="7Kl0M0ftxX6nWomnp8ho-8" value="CSF调用" style="edgeLabel;html=1;align=center;verticalAlign=middle;resizable=0;points=[];" vertex="1" connectable="0" parent="YQ1YVP4Hbw2NyQgz9QkE-45">
          <mxGeometry x="0.0939" y="3" relative="1" as="geometry">
            <mxPoint y="-3" as="offset" />
          </mxGeometry>
        </mxCell>
        <mxCell id="YQ1YVP4Hbw2NyQgz9QkE-20" value="umm-gateway" style="rounded=0;whiteSpace=wrap;html=1;fontSize=16;" parent="1" vertex="1">
          <mxGeometry x="110" y="360" width="170" height="40" as="geometry" />
        </mxCell>
        <mxCell id="YQ1YVP4Hbw2NyQgz9QkE-26" style="edgeStyle=orthogonalEdgeStyle;rounded=0;orthogonalLoop=1;jettySize=auto;html=1;entryX=1;entryY=0.75;entryDx=0;entryDy=0;fontSize=16;" parent="1" source="YQ1YVP4Hbw2NyQgz9QkE-21" target="YQ1YVP4Hbw2NyQgz9QkE-11" edge="1">
          <mxGeometry relative="1" as="geometry" />
        </mxCell>
        <mxCell id="YQ1YVP4Hbw2NyQgz9QkE-27" style="edgeStyle=orthogonalEdgeStyle;rounded=0;orthogonalLoop=1;jettySize=auto;html=1;entryX=1;entryY=0.75;entryDx=0;entryDy=0;fontSize=16;" parent="1" source="YQ1YVP4Hbw2NyQgz9QkE-21" target="YQ1YVP4Hbw2NyQgz9QkE-23" edge="1">
          <mxGeometry relative="1" as="geometry" />
        </mxCell>
        <mxCell id="YQ1YVP4Hbw2NyQgz9QkE-28" style="edgeStyle=orthogonalEdgeStyle;rounded=0;orthogonalLoop=1;jettySize=auto;html=1;fontSize=16;" parent="1" source="YQ1YVP4Hbw2NyQgz9QkE-21" target="YQ1YVP4Hbw2NyQgz9QkE-24" edge="1">
          <mxGeometry relative="1" as="geometry" />
        </mxCell>
        <mxCell id="YQ1YVP4Hbw2NyQgz9QkE-36" style="edgeStyle=orthogonalEdgeStyle;rounded=0;orthogonalLoop=1;jettySize=auto;html=1;exitX=1;exitY=0.25;exitDx=0;exitDy=0;entryX=0.25;entryY=1;entryDx=0;entryDy=0;dashed=1;dashPattern=8 8;fontSize=16;" parent="1" source="YQ1YVP4Hbw2NyQgz9QkE-21" target="YQ1YVP4Hbw2NyQgz9QkE-20" edge="1">
          <mxGeometry relative="1" as="geometry">
            <mxPoint x="80" y="200" as="targetPoint" />
          </mxGeometry>
        </mxCell>
        <mxCell id="7Kl0M0ftxX6nWomnp8ho-10" value="能开回调" style="edgeLabel;html=1;align=center;verticalAlign=middle;resizable=0;points=[];" vertex="1" connectable="0" parent="YQ1YVP4Hbw2NyQgz9QkE-36">
          <mxGeometry x="0.3771" y="2" relative="1" as="geometry">
            <mxPoint y="1" as="offset" />
          </mxGeometry>
        </mxCell>
        <mxCell id="YQ1YVP4Hbw2NyQgz9QkE-21" value="一&lt;br&gt;级&lt;br&gt;能&lt;br&gt;开" style="rounded=0;whiteSpace=wrap;html=1;fontSize=16;" parent="1" vertex="1">
          <mxGeometry x="-60" y="110" width="90" height="360" as="geometry" />
        </mxCell>
        <mxCell id="YQ1YVP4Hbw2NyQgz9QkE-23" value="省Boss系统" style="rounded=0;whiteSpace=wrap;html=1;fontSize=16;" parent="1" vertex="1">
          <mxGeometry x="-230" y="170" width="120" height="40" as="geometry" />
        </mxCell>
        <mxCell id="YQ1YVP4Hbw2NyQgz9QkE-24" value="省Boss系统" style="rounded=0;whiteSpace=wrap;html=1;fontSize=16;" parent="1" vertex="1">
          <mxGeometry x="-230" y="420" width="120" height="40" as="geometry" />
        </mxCell>
        <mxCell id="YQ1YVP4Hbw2NyQgz9QkE-31" style="edgeStyle=orthogonalEdgeStyle;rounded=0;orthogonalLoop=1;jettySize=auto;html=1;entryX=0.423;entryY=0.02;entryDx=0;entryDy=0;entryPerimeter=0;fontSize=16;" parent="1" source="YQ1YVP4Hbw2NyQgz9QkE-13" target="YQ1YVP4Hbw2NyQgz9QkE-17" edge="1">
          <mxGeometry relative="1" as="geometry" />
        </mxCell>
        <mxCell id="YQ1YVP4Hbw2NyQgz9QkE-46" style="edgeStyle=orthogonalEdgeStyle;rounded=0;orthogonalLoop=1;jettySize=auto;html=1;fontSize=16;" parent="1" source="YQ1YVP4Hbw2NyQgz9QkE-41" target="YQ1YVP4Hbw2NyQgz9QkE-42" edge="1">
          <mxGeometry relative="1" as="geometry" />
        </mxCell>
        <mxCell id="YQ1YVP4Hbw2NyQgz9QkE-49" style="edgeStyle=orthogonalEdgeStyle;rounded=0;orthogonalLoop=1;jettySize=auto;html=1;fontSize=16;" parent="1" source="YQ1YVP4Hbw2NyQgz9QkE-41" target="YQ1YVP4Hbw2NyQgz9QkE-43" edge="1">
          <mxGeometry relative="1" as="geometry" />
        </mxCell>
        <mxCell id="YQ1YVP4Hbw2NyQgz9QkE-50" style="edgeStyle=orthogonalEdgeStyle;rounded=0;orthogonalLoop=1;jettySize=auto;html=1;fontSize=16;" parent="1" source="YQ1YVP4Hbw2NyQgz9QkE-41" target="YQ1YVP4Hbw2NyQgz9QkE-44" edge="1">
          <mxGeometry relative="1" as="geometry" />
        </mxCell>
        <mxCell id="YQ1YVP4Hbw2NyQgz9QkE-52" style="edgeStyle=orthogonalEdgeStyle;rounded=0;orthogonalLoop=1;jettySize=auto;html=1;entryX=0.75;entryY=1;entryDx=0;entryDy=0;dashed=1;dashPattern=8 8;fontSize=16;" parent="1" source="YQ1YVP4Hbw2NyQgz9QkE-41" target="YQ1YVP4Hbw2NyQgz9QkE-20" edge="1">
          <mxGeometry relative="1" as="geometry">
            <Array as="points">
              <mxPoint x="238" y="515" />
            </Array>
          </mxGeometry>
        </mxCell>
        <mxCell id="7Kl0M0ftxX6nWomnp8ho-9" value="CSF调用" style="edgeLabel;html=1;align=center;verticalAlign=middle;resizable=0;points=[];" vertex="1" connectable="0" parent="YQ1YVP4Hbw2NyQgz9QkE-52">
          <mxGeometry x="0.1348" y="1" relative="1" as="geometry">
            <mxPoint x="1" y="1" as="offset" />
          </mxGeometry>
        </mxCell>
        <mxCell id="YQ1YVP4Hbw2NyQgz9QkE-41" value="CSC网关" style="rounded=0;whiteSpace=wrap;html=1;fontSize=16;" parent="1" vertex="1">
          <mxGeometry x="-55" y="630" width="450" height="40" as="geometry" />
        </mxCell>
        <mxCell id="YQ1YVP4Hbw2NyQgz9QkE-51" style="edgeStyle=orthogonalEdgeStyle;rounded=0;orthogonalLoop=1;jettySize=auto;html=1;entryX=0.25;entryY=1;entryDx=0;entryDy=0;dashed=1;dashPattern=8 8;fontSize=16;" parent="1" source="YQ1YVP4Hbw2NyQgz9QkE-42" target="YQ1YVP4Hbw2NyQgz9QkE-41" edge="1">
          <mxGeometry relative="1" as="geometry" />
        </mxCell>
        <mxCell id="YQ1YVP4Hbw2NyQgz9QkE-42" value="轻渠道" style="rounded=0;whiteSpace=wrap;html=1;fontSize=16;" parent="1" vertex="1">
          <mxGeometry x="-35" y="720" width="120" height="40" as="geometry" />
        </mxCell>
        <mxCell id="YQ1YVP4Hbw2NyQgz9QkE-43" value="订单中心" style="rounded=0;whiteSpace=wrap;html=1;fontSize=16;" parent="1" vertex="1">
          <mxGeometry x="110" y="720" width="120" height="40" as="geometry" />
        </mxCell>
        <mxCell id="YQ1YVP4Hbw2NyQgz9QkE-44" value="促销中心" style="rounded=0;whiteSpace=wrap;html=1;fontSize=16;" parent="1" vertex="1">
          <mxGeometry x="260" y="720" width="120" height="40" as="geometry" />
        </mxCell>
        <mxCell id="7Kl0M0ftxX6nWomnp8ho-6" style="edgeStyle=orthogonalEdgeStyle;rounded=0;orthogonalLoop=1;jettySize=auto;html=1;" edge="1" parent="1" source="YQ1YVP4Hbw2NyQgz9QkE-53" target="7Kl0M0ftxX6nWomnp8ho-5">
          <mxGeometry relative="1" as="geometry" />
        </mxCell>
        <mxCell id="YQ1YVP4Hbw2NyQgz9QkE-53" value="ummp-gateway" style="rounded=0;whiteSpace=wrap;html=1;fontSize=16;" parent="1" vertex="1">
          <mxGeometry x="530" y="130" width="200" height="40" as="geometry" />
        </mxCell>
        <mxCell id="YQ1YVP4Hbw2NyQgz9QkE-54" value="card" style="rounded=0;whiteSpace=wrap;html=1;fontSize=16;" parent="1" vertex="1">
          <mxGeometry x="530" y="200" width="80" height="40" as="geometry" />
        </mxCell>
        <mxCell id="YQ1YVP4Hbw2NyQgz9QkE-55" value="pkg" style="rounded=0;whiteSpace=wrap;html=1;fontSize=16;" parent="1" vertex="1">
          <mxGeometry x="640" y="200" width="80" height="40" as="geometry" />
        </mxCell>
        <mxCell id="YQ1YVP4Hbw2NyQgz9QkE-56" value="buy" style="rounded=0;whiteSpace=wrap;html=1;fontSize=16;" parent="1" vertex="1">
          <mxGeometry x="545" y="270" width="170" height="40" as="geometry" />
        </mxCell>
        <mxCell id="YQ1YVP4Hbw2NyQgz9QkE-62" style="edgeStyle=orthogonalEdgeStyle;rounded=0;orthogonalLoop=1;jettySize=auto;html=1;fontSize=16;" parent="1" source="YQ1YVP4Hbw2NyQgz9QkE-59" target="YQ1YVP4Hbw2NyQgz9QkE-53" edge="1">
          <mxGeometry relative="1" as="geometry">
            <Array as="points">
              <mxPoint x="630" y="60" />
            </Array>
          </mxGeometry>
        </mxCell>
        <mxCell id="YQ1YVP4Hbw2NyQgz9QkE-59" value="apisix" style="ellipse;whiteSpace=wrap;html=1;fontSize=16;" parent="1" vertex="1">
          <mxGeometry x="170" y="30" width="130" height="50" as="geometry" />
        </mxCell>
        <mxCell id="YQ1YVP4Hbw2NyQgz9QkE-61" style="edgeStyle=orthogonalEdgeStyle;rounded=0;orthogonalLoop=1;jettySize=auto;html=1;entryX=0.625;entryY=0;entryDx=0;entryDy=0;entryPerimeter=0;fontSize=16;" parent="1" source="YQ1YVP4Hbw2NyQgz9QkE-59" target="YQ1YVP4Hbw2NyQgz9QkE-13" edge="1">
          <mxGeometry relative="1" as="geometry" />
        </mxCell>
        <mxCell id="7Kl0M0ftxX6nWomnp8ho-3" style="edgeStyle=orthogonalEdgeStyle;rounded=0;orthogonalLoop=1;jettySize=auto;html=1;entryX=1;entryY=0.5;entryDx=0;entryDy=0;exitX=1;exitY=0.5;exitDx=0;exitDy=0;fontSize=16;" edge="1" parent="1" source="7Kl0M0ftxX6nWomnp8ho-2" target="YQ1YVP4Hbw2NyQgz9QkE-18">
          <mxGeometry relative="1" as="geometry" />
        </mxCell>
        <mxCell id="7Kl0M0ftxX6nWomnp8ho-4" value="跨机房RPC调用" style="edgeLabel;html=1;align=center;verticalAlign=middle;resizable=0;points=[];fontSize=16;" vertex="1" connectable="0" parent="7Kl0M0ftxX6nWomnp8ho-3">
          <mxGeometry x="-0.0149" relative="1" as="geometry">
            <mxPoint as="offset" />
          </mxGeometry>
        </mxCell>
        <mxCell id="7Kl0M0ftxX6nWomnp8ho-12" style="edgeStyle=orthogonalEdgeStyle;rounded=0;orthogonalLoop=1;jettySize=auto;html=1;" edge="1" parent="1" source="7Kl0M0ftxX6nWomnp8ho-2" target="7Kl0M0ftxX6nWomnp8ho-11">
          <mxGeometry relative="1" as="geometry" />
        </mxCell>
        <mxCell id="7Kl0M0ftxX6nWomnp8ho-2" value="5G消息网关" style="rounded=0;whiteSpace=wrap;html=1;fontSize=16;" vertex="1" parent="1">
          <mxGeometry x="-60" y="820" width="450" height="40" as="geometry" />
        </mxCell>
        <mxCell id="7Kl0M0ftxX6nWomnp8ho-5" value="一&lt;br&gt;级&lt;br&gt;能&lt;br&gt;开" style="rounded=0;whiteSpace=wrap;html=1;fontSize=16;" vertex="1" parent="1">
          <mxGeometry x="800" y="100" width="90" height="360" as="geometry" />
        </mxCell>
        <mxCell id="7Kl0M0ftxX6nWomnp8ho-11" value="订阅号平台" style="rounded=0;whiteSpace=wrap;html=1;fontSize=16;" vertex="1" parent="1">
          <mxGeometry x="-320" y="560" width="90" height="360" as="geometry" />
        </mxCell>
        <mxCell id="7Kl0M0ftxX6nWomnp8ho-19" style="edgeStyle=orthogonalEdgeStyle;rounded=0;orthogonalLoop=1;jettySize=auto;html=1;" edge="1" parent="1" source="7Kl0M0ftxX6nWomnp8ho-15" target="7Kl0M0ftxX6nWomnp8ho-2">
          <mxGeometry relative="1" as="geometry" />
        </mxCell>
        <mxCell id="7Kl0M0ftxX6nWomnp8ho-15" value="河南公司" style="rounded=0;whiteSpace=wrap;html=1;fontSize=16;" vertex="1" parent="1">
          <mxGeometry x="-75" y="950" width="120" height="40" as="geometry" />
        </mxCell>
        <mxCell id="7Kl0M0ftxX6nWomnp8ho-20" style="edgeStyle=orthogonalEdgeStyle;rounded=0;orthogonalLoop=1;jettySize=auto;html=1;entryX=0.5;entryY=1;entryDx=0;entryDy=0;" edge="1" parent="1" source="7Kl0M0ftxX6nWomnp8ho-16" target="7Kl0M0ftxX6nWomnp8ho-2">
          <mxGeometry relative="1" as="geometry" />
        </mxCell>
        <mxCell id="7Kl0M0ftxX6nWomnp8ho-16" value="河北公司" style="rounded=0;whiteSpace=wrap;html=1;fontSize=16;" vertex="1" parent="1">
          <mxGeometry x="60" y="950" width="120" height="40" as="geometry" />
        </mxCell>
        <mxCell id="7Kl0M0ftxX6nWomnp8ho-21" style="edgeStyle=orthogonalEdgeStyle;rounded=0;orthogonalLoop=1;jettySize=auto;html=1;entryX=0.5;entryY=1;entryDx=0;entryDy=0;" edge="1" parent="1" source="7Kl0M0ftxX6nWomnp8ho-17" target="7Kl0M0ftxX6nWomnp8ho-2">
          <mxGeometry relative="1" as="geometry" />
        </mxCell>
        <mxCell id="7Kl0M0ftxX6nWomnp8ho-17" value="浙江省" style="rounded=0;whiteSpace=wrap;html=1;fontSize=16;" vertex="1" parent="1">
          <mxGeometry x="310" y="950" width="120" height="40" as="geometry" />
        </mxCell>
        <mxCell id="7Kl0M0ftxX6nWomnp8ho-22" style="edgeStyle=orthogonalEdgeStyle;rounded=0;orthogonalLoop=1;jettySize=auto;html=1;entryX=0.471;entryY=0.013;entryDx=0;entryDy=0;entryPerimeter=0;exitX=0.967;exitY=0.626;exitDx=0;exitDy=0;exitPerimeter=0;dashed=1;" edge="1" parent="1" source="7Kl0M0ftxX6nWomnp8ho-11" target="7Kl0M0ftxX6nWomnp8ho-2">
          <mxGeometry relative="1" as="geometry" />
        </mxCell>
        <mxCell id="7Kl0M0ftxX6nWomnp8ho-23" value="回调" style="edgeLabel;html=1;align=center;verticalAlign=middle;resizable=0;points=[];" vertex="1" connectable="0" parent="7Kl0M0ftxX6nWomnp8ho-22">
          <mxGeometry x="-0.2588" y="1" relative="1" as="geometry">
            <mxPoint as="offset" />
          </mxGeometry>
        </mxCell>
      </root>
    </mxGraphModel>
  </diagram>
  <diagram id="mqFLSjw5bh_MkVLHcxQW" name="整体架构">
    <mxGraphModel dx="3158" dy="1525" grid="1" gridSize="10" guides="1" tooltips="1" connect="1" arrows="1" fold="1" page="1" pageScale="1" pageWidth="827" pageHeight="1169" math="0" shadow="0">
      <root>
        <mxCell id="0" />
        <mxCell id="1" parent="0" />
        <mxCell id="2xXGmWmYKc1sObddvyoL-62" value="" style="rounded=0;whiteSpace=wrap;html=1;" vertex="1" parent="1">
          <mxGeometry x="110" y="420" width="690" height="180" as="geometry" />
        </mxCell>
        <mxCell id="KmUIaSq6xmH69jJKkp5R-2" value="呼池机房" style="text;html=1;align=center;verticalAlign=middle;whiteSpace=wrap;rounded=0;fontSize=18;" parent="1" vertex="1">
          <mxGeometry x="110" y="170" width="80" height="30" as="geometry" />
        </mxCell>
        <mxCell id="KmUIaSq6xmH69jJKkp5R-6" value="" style="rounded=0;whiteSpace=wrap;html=1;" parent="1" vertex="1">
          <mxGeometry x="79" y="810" width="730" height="440" as="geometry" />
        </mxCell>
        <mxCell id="KmUIaSq6xmH69jJKkp5R-7" value="洛阳机房" style="text;html=1;align=center;verticalAlign=middle;whiteSpace=wrap;rounded=0;fontSize=18;" parent="1" vertex="1">
          <mxGeometry x="102" y="820" width="96" height="30" as="geometry" />
        </mxCell>
        <mxCell id="KmUIaSq6xmH69jJKkp5R-9" value="淮安机房" style="text;html=1;align=center;verticalAlign=middle;whiteSpace=wrap;rounded=0;" parent="1" vertex="1">
          <mxGeometry x="1345" y="810" width="60" height="30" as="geometry" />
        </mxCell>
        <mxCell id="2xXGmWmYKc1sObddvyoL-48" style="edgeStyle=orthogonalEdgeStyle;rounded=0;orthogonalLoop=1;jettySize=auto;html=1;entryX=0.5;entryY=0;entryDx=0;entryDy=0;" edge="1" parent="1" source="2xXGmWmYKc1sObddvyoL-1" target="2xXGmWmYKc1sObddvyoL-2">
          <mxGeometry relative="1" as="geometry" />
        </mxCell>
        <mxCell id="KmUIaSq6xmH69jJKkp5R-3" value="" style="rounded=0;whiteSpace=wrap;html=1;fontSize=18;" parent="1" vertex="1">
          <mxGeometry x="90" y="170" width="730" height="440" as="geometry" />
        </mxCell>
        <mxCell id="2xXGmWmYKc1sObddvyoL-74" value="" style="edgeStyle=orthogonalEdgeStyle;rounded=0;orthogonalLoop=1;jettySize=auto;html=1;" edge="1" parent="1" source="2xXGmWmYKc1sObddvyoL-1" target="2xXGmWmYKc1sObddvyoL-2">
          <mxGeometry relative="1" as="geometry" />
        </mxCell>
        <mxCell id="2xXGmWmYKc1sObddvyoL-1" value="ApiSix" style="rounded=1;whiteSpace=wrap;html=1;fontSize=18;" vertex="1" parent="1">
          <mxGeometry x="120" y="210" width="670" height="60" as="geometry" />
        </mxCell>
        <mxCell id="2xXGmWmYKc1sObddvyoL-49" style="rounded=0;orthogonalLoop=1;jettySize=auto;html=1;" edge="1" parent="1">
          <mxGeometry relative="1" as="geometry">
            <mxPoint x="347.5" y="380" as="sourcePoint" />
            <mxPoint x="250" y="440" as="targetPoint" />
          </mxGeometry>
        </mxCell>
        <mxCell id="2xXGmWmYKc1sObddvyoL-51" style="edgeStyle=orthogonalEdgeStyle;rounded=0;orthogonalLoop=1;jettySize=auto;html=1;" edge="1" parent="1" source="2xXGmWmYKc1sObddvyoL-2" target="2xXGmWmYKc1sObddvyoL-15">
          <mxGeometry relative="1" as="geometry">
            <Array as="points">
              <mxPoint x="420" y="630" />
              <mxPoint x="420" y="630" />
            </Array>
          </mxGeometry>
        </mxCell>
        <mxCell id="2xXGmWmYKc1sObddvyoL-53" value="CSF" style="edgeLabel;html=1;align=center;verticalAlign=middle;resizable=0;points=[];fontSize=18;" vertex="1" connectable="0" parent="2xXGmWmYKc1sObddvyoL-51">
          <mxGeometry x="0.2152" y="-1" relative="1" as="geometry">
            <mxPoint as="offset" />
          </mxGeometry>
        </mxCell>
        <mxCell id="2xXGmWmYKc1sObddvyoL-70" style="edgeStyle=orthogonalEdgeStyle;rounded=0;orthogonalLoop=1;jettySize=auto;html=1;" edge="1" parent="1" source="2xXGmWmYKc1sObddvyoL-2" target="2xXGmWmYKc1sObddvyoL-45">
          <mxGeometry relative="1" as="geometry" />
        </mxCell>
        <mxCell id="2xXGmWmYKc1sObddvyoL-2" value="ummp-gateway" style="rounded=1;whiteSpace=wrap;html=1;fontSize=18;fillColor=#d5e8d4;strokeColor=#82b366;" vertex="1" parent="1">
          <mxGeometry x="120" y="320" width="670" height="60" as="geometry" />
        </mxCell>
        <mxCell id="2xXGmWmYKc1sObddvyoL-3" value="portal" style="rounded=1;whiteSpace=wrap;html=1;fontSize=18;" vertex="1" parent="1">
          <mxGeometry x="120" y="440" width="280" height="60" as="geometry" />
        </mxCell>
        <mxCell id="2xXGmWmYKc1sObddvyoL-4" value="card" style="rounded=1;whiteSpace=wrap;html=1;fontSize=18;" vertex="1" parent="1">
          <mxGeometry x="120" y="530" width="280" height="60" as="geometry" />
        </mxCell>
        <mxCell id="2xXGmWmYKc1sObddvyoL-5" value="buy" style="rounded=1;whiteSpace=wrap;html=1;fontSize=18;" vertex="1" parent="1">
          <mxGeometry x="500" y="440" width="290" height="60" as="geometry" />
        </mxCell>
        <mxCell id="2xXGmWmYKc1sObddvyoL-6" value="pkg" style="rounded=1;whiteSpace=wrap;html=1;fontSize=18;" vertex="1" parent="1">
          <mxGeometry x="500" y="530" width="290" height="60" as="geometry" />
        </mxCell>
        <mxCell id="2xXGmWmYKc1sObddvyoL-7" value="" style="rounded=0;whiteSpace=wrap;html=1;fontSize=18;" vertex="1" parent="1">
          <mxGeometry x="940" y="170" width="730" height="440" as="geometry" />
        </mxCell>
        <mxCell id="2xXGmWmYKc1sObddvyoL-8" value="呼池机房" style="text;html=1;align=center;verticalAlign=middle;whiteSpace=wrap;rounded=0;fontSize=18;" vertex="1" parent="1">
          <mxGeometry x="960" y="170" width="80" height="30" as="geometry" />
        </mxCell>
        <mxCell id="2xXGmWmYKc1sObddvyoL-86" value="" style="edgeStyle=orthogonalEdgeStyle;rounded=0;orthogonalLoop=1;jettySize=auto;html=1;" edge="1" parent="1" source="2xXGmWmYKc1sObddvyoL-9" target="2xXGmWmYKc1sObddvyoL-10">
          <mxGeometry relative="1" as="geometry" />
        </mxCell>
        <mxCell id="2xXGmWmYKc1sObddvyoL-9" value="ApiSix" style="rounded=1;whiteSpace=wrap;html=1;fontSize=18;" vertex="1" parent="1">
          <mxGeometry x="970" y="210" width="670" height="60" as="geometry" />
        </mxCell>
        <mxCell id="2xXGmWmYKc1sObddvyoL-87" style="rounded=0;orthogonalLoop=1;jettySize=auto;html=1;entryX=0.5;entryY=0;entryDx=0;entryDy=0;" edge="1" parent="1" source="2xXGmWmYKc1sObddvyoL-10" target="2xXGmWmYKc1sObddvyoL-11">
          <mxGeometry relative="1" as="geometry" />
        </mxCell>
        <mxCell id="2xXGmWmYKc1sObddvyoL-10" value="ummp-gateway" style="rounded=1;whiteSpace=wrap;html=1;fontSize=18;fillColor=#d5e8d4;strokeColor=#82b366;" vertex="1" parent="1">
          <mxGeometry x="970" y="320" width="670" height="60" as="geometry" />
        </mxCell>
        <mxCell id="2xXGmWmYKc1sObddvyoL-11" value="buy" style="rounded=1;whiteSpace=wrap;html=1;fontSize=18;" vertex="1" parent="1">
          <mxGeometry x="970" y="440" width="280" height="60" as="geometry" />
        </mxCell>
        <mxCell id="2xXGmWmYKc1sObddvyoL-12" value="card" style="rounded=1;whiteSpace=wrap;html=1;fontSize=18;" vertex="1" parent="1">
          <mxGeometry x="970" y="530" width="280" height="60" as="geometry" />
        </mxCell>
        <mxCell id="2xXGmWmYKc1sObddvyoL-13" value="charge" style="rounded=1;whiteSpace=wrap;html=1;fontSize=18;" vertex="1" parent="1">
          <mxGeometry x="1350" y="440" width="290" height="60" as="geometry" />
        </mxCell>
        <mxCell id="2xXGmWmYKc1sObddvyoL-14" value="pkg" style="rounded=1;whiteSpace=wrap;html=1;fontSize=18;" vertex="1" parent="1">
          <mxGeometry x="1350" y="530" width="290" height="60" as="geometry" />
        </mxCell>
        <mxCell id="2xXGmWmYKc1sObddvyoL-81" style="edgeStyle=orthogonalEdgeStyle;rounded=0;orthogonalLoop=1;jettySize=auto;html=1;" edge="1" parent="1" source="2xXGmWmYKc1sObddvyoL-15" target="2xXGmWmYKc1sObddvyoL-25">
          <mxGeometry relative="1" as="geometry" />
        </mxCell>
        <mxCell id="2xXGmWmYKc1sObddvyoL-82" style="edgeStyle=orthogonalEdgeStyle;rounded=0;orthogonalLoop=1;jettySize=auto;html=1;" edge="1" parent="1" source="2xXGmWmYKc1sObddvyoL-15" target="2xXGmWmYKc1sObddvyoL-25">
          <mxGeometry relative="1" as="geometry" />
        </mxCell>
        <mxCell id="2xXGmWmYKc1sObddvyoL-91" style="edgeStyle=orthogonalEdgeStyle;rounded=0;orthogonalLoop=1;jettySize=auto;html=1;" edge="1" parent="1" source="2xXGmWmYKc1sObddvyoL-15" target="2xXGmWmYKc1sObddvyoL-19">
          <mxGeometry relative="1" as="geometry">
            <Array as="points">
              <mxPoint x="455" y="1040" />
              <mxPoint x="249" y="1040" />
            </Array>
          </mxGeometry>
        </mxCell>
        <mxCell id="2xXGmWmYKc1sObddvyoL-92" style="edgeStyle=orthogonalEdgeStyle;rounded=0;orthogonalLoop=1;jettySize=auto;html=1;" edge="1" parent="1" source="2xXGmWmYKc1sObddvyoL-15" target="2xXGmWmYKc1sObddvyoL-18">
          <mxGeometry relative="1" as="geometry">
            <Array as="points">
              <mxPoint x="455" y="1040" />
              <mxPoint x="634" y="1040" />
            </Array>
          </mxGeometry>
        </mxCell>
        <mxCell id="2xXGmWmYKc1sObddvyoL-93" value="CSF调用" style="edgeLabel;html=1;align=center;verticalAlign=middle;resizable=0;points=[];fontSize=16;" vertex="1" connectable="0" parent="2xXGmWmYKc1sObddvyoL-92">
          <mxGeometry x="-0.3767" y="-3" relative="1" as="geometry">
            <mxPoint x="-8" y="-61" as="offset" />
          </mxGeometry>
        </mxCell>
        <mxCell id="2xXGmWmYKc1sObddvyoL-15" value="csc-gateway" style="rounded=1;whiteSpace=wrap;html=1;fontSize=18;fillColor=#d5e8d4;strokeColor=#82b366;" vertex="1" parent="1">
          <mxGeometry x="120" y="860" width="670" height="60" as="geometry" />
        </mxCell>
        <mxCell id="2xXGmWmYKc1sObddvyoL-16" value="促销中心" style="rounded=1;whiteSpace=wrap;html=1;fontSize=18;" vertex="1" parent="1">
          <mxGeometry x="109" y="961" width="280" height="60" as="geometry" />
        </mxCell>
        <mxCell id="2xXGmWmYKc1sObddvyoL-17" value="订单中心" style="rounded=1;whiteSpace=wrap;html=1;fontSize=18;" vertex="1" parent="1">
          <mxGeometry x="489" y="961" width="290" height="60" as="geometry" />
        </mxCell>
        <mxCell id="2xXGmWmYKc1sObddvyoL-18" value="服营" style="rounded=1;whiteSpace=wrap;html=1;fontSize=18;" vertex="1" parent="1">
          <mxGeometry x="491" y="1071" width="290" height="60" as="geometry" />
        </mxCell>
        <mxCell id="2xXGmWmYKc1sObddvyoL-19" value="轻渠道" style="rounded=1;whiteSpace=wrap;html=1;fontSize=18;" vertex="1" parent="1">
          <mxGeometry x="104" y="1071" width="290" height="60" as="geometry" />
        </mxCell>
        <mxCell id="2xXGmWmYKc1sObddvyoL-68" style="edgeStyle=orthogonalEdgeStyle;rounded=0;orthogonalLoop=1;jettySize=auto;html=1;entryX=0;entryY=0.5;entryDx=0;entryDy=0;startArrow=classic;startFill=1;" edge="1" parent="1" source="2xXGmWmYKc1sObddvyoL-20" target="2xXGmWmYKc1sObddvyoL-3">
          <mxGeometry relative="1" as="geometry">
            <Array as="points">
              <mxPoint x="-10" y="1199" />
              <mxPoint x="-10" y="470" />
            </Array>
          </mxGeometry>
        </mxCell>
        <mxCell id="2xXGmWmYKc1sObddvyoL-69" value="跨机房RPC调用" style="edgeLabel;html=1;align=center;verticalAlign=middle;resizable=0;points=[];fontSize=18;" vertex="1" connectable="0" parent="2xXGmWmYKc1sObddvyoL-68">
          <mxGeometry x="0.1709" y="1" relative="1" as="geometry">
            <mxPoint as="offset" />
          </mxGeometry>
        </mxCell>
        <mxCell id="2xXGmWmYKc1sObddvyoL-75" style="edgeStyle=orthogonalEdgeStyle;rounded=0;orthogonalLoop=1;jettySize=auto;html=1;" edge="1" parent="1" source="2xXGmWmYKc1sObddvyoL-20" target="2xXGmWmYKc1sObddvyoL-29">
          <mxGeometry relative="1" as="geometry" />
        </mxCell>
        <mxCell id="2xXGmWmYKc1sObddvyoL-20" value="msg-gateway" style="rounded=1;whiteSpace=wrap;html=1;fontSize=18;fillColor=#d5e8d4;strokeColor=#82b366;" vertex="1" parent="1">
          <mxGeometry x="104" y="1169" width="670" height="60" as="geometry" />
        </mxCell>
        <mxCell id="2xXGmWmYKc1sObddvyoL-21" value="" style="rounded=0;whiteSpace=wrap;html=1;" vertex="1" parent="1">
          <mxGeometry x="960" y="810" width="730" height="440" as="geometry" />
        </mxCell>
        <mxCell id="2xXGmWmYKc1sObddvyoL-22" value="淮安机房" style="text;html=1;align=center;verticalAlign=middle;whiteSpace=wrap;rounded=0;fontSize=18;" vertex="1" parent="1">
          <mxGeometry x="983" y="820" width="96" height="30" as="geometry" />
        </mxCell>
        <mxCell id="2xXGmWmYKc1sObddvyoL-24" value="促销中心" style="rounded=1;whiteSpace=wrap;html=1;fontSize=18;" vertex="1" parent="1">
          <mxGeometry x="990" y="961" width="280" height="60" as="geometry" />
        </mxCell>
        <mxCell id="2xXGmWmYKc1sObddvyoL-25" value="订单中心" style="rounded=1;whiteSpace=wrap;html=1;fontSize=18;" vertex="1" parent="1">
          <mxGeometry x="1370" y="961" width="290" height="60" as="geometry" />
        </mxCell>
        <mxCell id="2xXGmWmYKc1sObddvyoL-26" value="服营" style="rounded=1;whiteSpace=wrap;html=1;fontSize=18;" vertex="1" parent="1">
          <mxGeometry x="1370" y="1071" width="290" height="60" as="geometry" />
        </mxCell>
        <mxCell id="2xXGmWmYKc1sObddvyoL-27" value="轻渠道" style="rounded=1;whiteSpace=wrap;html=1;fontSize=18;" vertex="1" parent="1">
          <mxGeometry x="985" y="1071" width="290" height="60" as="geometry" />
        </mxCell>
        <mxCell id="2xXGmWmYKc1sObddvyoL-76" style="edgeStyle=orthogonalEdgeStyle;rounded=0;orthogonalLoop=1;jettySize=auto;html=1;entryX=0.5;entryY=0;entryDx=0;entryDy=0;" edge="1" parent="1" source="2xXGmWmYKc1sObddvyoL-28" target="2xXGmWmYKc1sObddvyoL-29">
          <mxGeometry relative="1" as="geometry" />
        </mxCell>
        <mxCell id="2xXGmWmYKc1sObddvyoL-28" value="msg-gateway" style="rounded=1;whiteSpace=wrap;html=1;fontSize=18;fillColor=#d5e8d4;strokeColor=#82b366;" vertex="1" parent="1">
          <mxGeometry x="985" y="1169" width="670" height="60" as="geometry" />
        </mxCell>
        <mxCell id="2xXGmWmYKc1sObddvyoL-29" value="订阅号平台" style="rounded=1;whiteSpace=wrap;html=1;fontSize=18;" vertex="1" parent="1">
          <mxGeometry x="520" y="1290" width="741" height="60" as="geometry" />
        </mxCell>
        <mxCell id="2xXGmWmYKc1sObddvyoL-77" style="edgeStyle=orthogonalEdgeStyle;rounded=0;orthogonalLoop=1;jettySize=auto;html=1;entryX=0.25;entryY=1;entryDx=0;entryDy=0;startArrow=classic;startFill=1;" edge="1" parent="1" source="2xXGmWmYKc1sObddvyoL-31" target="2xXGmWmYKc1sObddvyoL-20">
          <mxGeometry relative="1" as="geometry" />
        </mxCell>
        <mxCell id="2xXGmWmYKc1sObddvyoL-31" value="" style="rounded=0;whiteSpace=wrap;html=1;fontSize=14;" vertex="1" parent="1">
          <mxGeometry x="90" y="1390" width="730" height="60" as="geometry" />
        </mxCell>
        <mxCell id="2xXGmWmYKc1sObddvyoL-78" style="edgeStyle=orthogonalEdgeStyle;rounded=0;orthogonalLoop=1;jettySize=auto;html=1;entryX=0.75;entryY=1;entryDx=0;entryDy=0;startArrow=classic;startFill=1;" edge="1" parent="1" source="2xXGmWmYKc1sObddvyoL-32" target="2xXGmWmYKc1sObddvyoL-28">
          <mxGeometry relative="1" as="geometry" />
        </mxCell>
        <mxCell id="2xXGmWmYKc1sObddvyoL-32" value="" style="rounded=0;whiteSpace=wrap;html=1;fontSize=14;" vertex="1" parent="1">
          <mxGeometry x="955" y="1390" width="730" height="60" as="geometry" />
        </mxCell>
        <mxCell id="2xXGmWmYKc1sObddvyoL-35" value="河南公司" style="rounded=1;whiteSpace=wrap;html=1;fontSize=14;" vertex="1" parent="1">
          <mxGeometry x="104" y="1400" width="100" height="40" as="geometry" />
        </mxCell>
        <mxCell id="2xXGmWmYKc1sObddvyoL-36" value="河北公司" style="rounded=1;whiteSpace=wrap;html=1;fontSize=14;" vertex="1" parent="1">
          <mxGeometry x="220" y="1400" width="100" height="40" as="geometry" />
        </mxCell>
        <mxCell id="2xXGmWmYKc1sObddvyoL-37" value="江苏公司" style="rounded=1;whiteSpace=wrap;html=1;fontSize=14;" vertex="1" parent="1">
          <mxGeometry x="709" y="1400" width="100" height="40" as="geometry" />
        </mxCell>
        <mxCell id="2xXGmWmYKc1sObddvyoL-38" value="。。。" style="rounded=1;whiteSpace=wrap;html=1;fontSize=14;" vertex="1" parent="1">
          <mxGeometry x="595" y="1400" width="100" height="40" as="geometry" />
        </mxCell>
        <mxCell id="2xXGmWmYKc1sObddvyoL-39" value="上海公司" style="rounded=1;whiteSpace=wrap;html=1;fontSize=14;" vertex="1" parent="1">
          <mxGeometry x="980" y="1400" width="100" height="40" as="geometry" />
        </mxCell>
        <mxCell id="2xXGmWmYKc1sObddvyoL-40" value="浙江公司" style="rounded=1;whiteSpace=wrap;html=1;fontSize=14;" vertex="1" parent="1">
          <mxGeometry x="1096" y="1400" width="100" height="40" as="geometry" />
        </mxCell>
        <mxCell id="2xXGmWmYKc1sObddvyoL-41" value="广东公司" style="rounded=1;whiteSpace=wrap;html=1;fontSize=14;" vertex="1" parent="1">
          <mxGeometry x="1585" y="1400" width="100" height="40" as="geometry" />
        </mxCell>
        <mxCell id="2xXGmWmYKc1sObddvyoL-42" value="。。。" style="rounded=1;whiteSpace=wrap;html=1;fontSize=14;" vertex="1" parent="1">
          <mxGeometry x="1471" y="1400" width="100" height="40" as="geometry" />
        </mxCell>
        <mxCell id="2xXGmWmYKc1sObddvyoL-72" style="edgeStyle=orthogonalEdgeStyle;rounded=0;orthogonalLoop=1;jettySize=auto;html=1;entryX=1;entryY=0.5;entryDx=0;entryDy=0;" edge="1" parent="1" source="2xXGmWmYKc1sObddvyoL-45" target="2xXGmWmYKc1sObddvyoL-71">
          <mxGeometry relative="1" as="geometry" />
        </mxCell>
        <mxCell id="2xXGmWmYKc1sObddvyoL-45" value="&lt;font style=&quot;font-size: 18px;&quot;&gt;互联网公司代理proxy&lt;/font&gt;" style="rounded=1;whiteSpace=wrap;html=1;fillColor=#d5e8d4;strokeColor=#82b366;" vertex="1" parent="1">
          <mxGeometry x="-150" y="170" width="100" height="440" as="geometry" />
        </mxCell>
        <mxCell id="2xXGmWmYKc1sObddvyoL-50" style="rounded=0;orthogonalLoop=1;jettySize=auto;html=1;entryX=0.5;entryY=0;entryDx=0;entryDy=0;" edge="1" parent="1" target="2xXGmWmYKc1sObddvyoL-5">
          <mxGeometry relative="1" as="geometry">
            <mxPoint x="537" y="380" as="sourcePoint" />
            <mxPoint x="620" y="439" as="targetPoint" />
          </mxGeometry>
        </mxCell>
        <mxCell id="2xXGmWmYKc1sObddvyoL-52" style="edgeStyle=orthogonalEdgeStyle;rounded=0;orthogonalLoop=1;jettySize=auto;html=1;endArrow=none;endFill=0;startArrow=classic;startFill=1;" edge="1" parent="1">
          <mxGeometry relative="1" as="geometry">
            <mxPoint x="470" y="380" as="sourcePoint" />
            <mxPoint x="470" y="860" as="targetPoint" />
            <Array as="points">
              <mxPoint x="470" y="620" />
              <mxPoint x="470" y="620" />
            </Array>
          </mxGeometry>
        </mxCell>
        <mxCell id="2xXGmWmYKc1sObddvyoL-54" value="CSF" style="edgeLabel;html=1;align=center;verticalAlign=middle;resizable=0;points=[];fontSize=18;" vertex="1" connectable="0" parent="2xXGmWmYKc1sObddvyoL-52">
          <mxGeometry x="0.0681" relative="1" as="geometry">
            <mxPoint as="offset" />
          </mxGeometry>
        </mxCell>
        <mxCell id="2xXGmWmYKc1sObddvyoL-55" style="rounded=0;orthogonalLoop=1;jettySize=auto;html=1;exitX=0.25;exitY=1;exitDx=0;exitDy=0;" edge="1" parent="1" source="2xXGmWmYKc1sObddvyoL-15">
          <mxGeometry relative="1" as="geometry">
            <mxPoint x="347" y="901" as="sourcePoint" />
            <mxPoint x="250" y="961" as="targetPoint" />
          </mxGeometry>
        </mxCell>
        <mxCell id="2xXGmWmYKc1sObddvyoL-57" style="rounded=0;orthogonalLoop=1;jettySize=auto;html=1;exitX=0.691;exitY=0.978;exitDx=0;exitDy=0;exitPerimeter=0;" edge="1" parent="1" source="2xXGmWmYKc1sObddvyoL-15">
          <mxGeometry relative="1" as="geometry">
            <mxPoint x="668" y="920" as="sourcePoint" />
            <mxPoint x="630" y="961" as="targetPoint" />
          </mxGeometry>
        </mxCell>
        <mxCell id="2xXGmWmYKc1sObddvyoL-71" value="&lt;font style=&quot;font-size: 18px;&quot;&gt;外部服务&lt;/font&gt;" style="rounded=1;whiteSpace=wrap;html=1;" vertex="1" parent="1">
          <mxGeometry x="-310" y="170" width="100" height="440" as="geometry" />
        </mxCell>
        <mxCell id="2xXGmWmYKc1sObddvyoL-47" style="edgeStyle=orthogonalEdgeStyle;rounded=0;orthogonalLoop=1;jettySize=auto;html=1;startArrow=classic;startFill=1;endArrow=none;endFill=0;" edge="1" parent="1" source="2xXGmWmYKc1sObddvyoL-1">
          <mxGeometry relative="1" as="geometry">
            <mxPoint x="455" y="80" as="targetPoint" />
          </mxGeometry>
        </mxCell>
        <mxCell id="2xXGmWmYKc1sObddvyoL-79" style="edgeStyle=orthogonalEdgeStyle;rounded=0;orthogonalLoop=1;jettySize=auto;html=1;" edge="1" parent="1" source="2xXGmWmYKc1sObddvyoL-15" target="2xXGmWmYKc1sObddvyoL-24">
          <mxGeometry relative="1" as="geometry" />
        </mxCell>
        <mxCell id="2xXGmWmYKc1sObddvyoL-80" value="&lt;font style=&quot;font-size: 18px;&quot;&gt;CSF调用&lt;/font&gt;" style="edgeLabel;html=1;align=center;verticalAlign=middle;resizable=0;points=[];" vertex="1" connectable="0" parent="2xXGmWmYKc1sObddvyoL-79">
          <mxGeometry x="0.1468" y="2" relative="1" as="geometry">
            <mxPoint as="offset" />
          </mxGeometry>
        </mxCell>
        <mxCell id="2xXGmWmYKc1sObddvyoL-84" style="edgeStyle=orthogonalEdgeStyle;rounded=0;orthogonalLoop=1;jettySize=auto;html=1;entryX=0.5;entryY=0;entryDx=0;entryDy=0;" edge="1" parent="1" source="2xXGmWmYKc1sObddvyoL-15" target="2xXGmWmYKc1sObddvyoL-25">
          <mxGeometry relative="1" as="geometry" />
        </mxCell>
        <mxCell id="2xXGmWmYKc1sObddvyoL-85" style="edgeStyle=orthogonalEdgeStyle;rounded=0;orthogonalLoop=1;jettySize=auto;html=1;startArrow=classic;startFill=1;endArrow=none;endFill=0;" edge="1" parent="1">
          <mxGeometry relative="1" as="geometry">
            <mxPoint x="1300" y="80" as="targetPoint" />
            <mxPoint x="1300" y="210" as="sourcePoint" />
            <Array as="points">
              <mxPoint x="1300" y="110" />
              <mxPoint x="1300" y="110" />
            </Array>
          </mxGeometry>
        </mxCell>
        <mxCell id="2xXGmWmYKc1sObddvyoL-88" style="rounded=0;orthogonalLoop=1;jettySize=auto;html=1;entryX=0.5;entryY=0;entryDx=0;entryDy=0;" edge="1" parent="1" source="2xXGmWmYKc1sObddvyoL-10">
          <mxGeometry relative="1" as="geometry">
            <mxPoint x="1610" y="380" as="sourcePoint" />
            <mxPoint x="1480" y="440" as="targetPoint" />
          </mxGeometry>
        </mxCell>
        <mxCell id="2xXGmWmYKc1sObddvyoL-89" style="edgeStyle=orthogonalEdgeStyle;rounded=0;orthogonalLoop=1;jettySize=auto;html=1;entryX=0;entryY=0.5;entryDx=0;entryDy=0;startArrow=classic;startFill=1;" edge="1" parent="1" source="2xXGmWmYKc1sObddvyoL-2" target="2xXGmWmYKc1sObddvyoL-11">
          <mxGeometry relative="1" as="geometry" />
        </mxCell>
        <mxCell id="2xXGmWmYKc1sObddvyoL-90" value="&lt;font style=&quot;font-size: 15px;&quot;&gt;&amp;nbsp;跨机房&lt;br&gt;RPC调用&lt;/font&gt;" style="edgeLabel;html=1;align=center;verticalAlign=middle;resizable=0;points=[];" vertex="1" connectable="0" parent="2xXGmWmYKc1sObddvyoL-89">
          <mxGeometry x="0.1055" y="3" relative="1" as="geometry">
            <mxPoint as="offset" />
          </mxGeometry>
        </mxCell>
      </root>
    </mxGraphModel>
  </diagram>
  <diagram id="ezoe0nNubb0cIwFiz3Jz" name="5G网关token">
    <mxGraphModel dx="1515" dy="991" grid="1" gridSize="10" guides="1" tooltips="1" connect="1" arrows="1" fold="1" page="1" pageScale="1" pageWidth="827" pageHeight="1169" math="0" shadow="0">
      <root>
        <mxCell id="0" />
        <mxCell id="1" parent="0" />
        <mxCell id="DPFkHbnq-CvgyuaQDvC9-4" value="" style="rounded=0;whiteSpace=wrap;html=1;" vertex="1" parent="1">
          <mxGeometry x="150" y="130" width="160" height="310" as="geometry" />
        </mxCell>
        <mxCell id="DPFkHbnq-CvgyuaQDvC9-10" value="" style="edgeStyle=orthogonalEdgeStyle;rounded=0;orthogonalLoop=1;jettySize=auto;html=1;" edge="1" parent="1" source="DPFkHbnq-CvgyuaQDvC9-1" target="DPFkHbnq-CvgyuaQDvC9-9">
          <mxGeometry relative="1" as="geometry" />
        </mxCell>
        <mxCell id="DPFkHbnq-CvgyuaQDvC9-1" value="本地缓存" style="rounded=1;whiteSpace=wrap;html=1;" vertex="1" parent="1">
          <mxGeometry x="180" y="240" width="100" height="40" as="geometry" />
        </mxCell>
        <mxCell id="DPFkHbnq-CvgyuaQDvC9-3" value="订阅号平台" style="rounded=1;whiteSpace=wrap;html=1;" vertex="1" parent="1">
          <mxGeometry x="180" y="388" width="100" height="40" as="geometry" />
        </mxCell>
        <mxCell id="DPFkHbnq-CvgyuaQDvC9-5" value="&lt;font style=&quot;font-size: 16px;&quot;&gt;洛阳机房&lt;/font&gt;" style="text;html=1;align=center;verticalAlign=middle;whiteSpace=wrap;rounded=0;" vertex="1" parent="1">
          <mxGeometry x="195" y="130" width="70" height="30" as="geometry" />
        </mxCell>
        <mxCell id="DPFkHbnq-CvgyuaQDvC9-8" value="" style="edgeStyle=orthogonalEdgeStyle;rounded=0;orthogonalLoop=1;jettySize=auto;html=1;entryX=0.5;entryY=0;entryDx=0;entryDy=0;exitX=0.5;exitY=1;exitDx=0;exitDy=0;" edge="1" parent="1" source="DPFkHbnq-CvgyuaQDvC9-6" target="DPFkHbnq-CvgyuaQDvC9-1">
          <mxGeometry relative="1" as="geometry">
            <mxPoint x="230" y="300" as="targetPoint" />
          </mxGeometry>
        </mxCell>
        <mxCell id="DPFkHbnq-CvgyuaQDvC9-6" value="应用" style="rounded=1;whiteSpace=wrap;html=1;" vertex="1" parent="1">
          <mxGeometry x="180" y="159" width="100" height="40" as="geometry" />
        </mxCell>
        <mxCell id="DPFkHbnq-CvgyuaQDvC9-12" value="" style="edgeStyle=orthogonalEdgeStyle;rounded=0;orthogonalLoop=1;jettySize=auto;html=1;" edge="1" parent="1" source="DPFkHbnq-CvgyuaQDvC9-9" target="DPFkHbnq-CvgyuaQDvC9-3">
          <mxGeometry relative="1" as="geometry" />
        </mxCell>
        <mxCell id="DPFkHbnq-CvgyuaQDvC9-9" value="redis" style="rounded=1;whiteSpace=wrap;html=1;" vertex="1" parent="1">
          <mxGeometry x="180" y="315" width="100" height="40" as="geometry" />
        </mxCell>
        <mxCell id="DPFkHbnq-CvgyuaQDvC9-13" value="" style="rounded=0;whiteSpace=wrap;html=1;" vertex="1" parent="1">
          <mxGeometry x="150" y="530" width="160" height="310" as="geometry" />
        </mxCell>
        <mxCell id="DPFkHbnq-CvgyuaQDvC9-14" value="" style="edgeStyle=orthogonalEdgeStyle;rounded=0;orthogonalLoop=1;jettySize=auto;html=1;" edge="1" parent="1" source="DPFkHbnq-CvgyuaQDvC9-15" target="DPFkHbnq-CvgyuaQDvC9-21">
          <mxGeometry relative="1" as="geometry" />
        </mxCell>
        <mxCell id="DPFkHbnq-CvgyuaQDvC9-15" value="本地缓存" style="rounded=1;whiteSpace=wrap;html=1;" vertex="1" parent="1">
          <mxGeometry x="180" y="640" width="100" height="40" as="geometry" />
        </mxCell>
        <mxCell id="DPFkHbnq-CvgyuaQDvC9-16" value="订阅号平台" style="rounded=1;whiteSpace=wrap;html=1;" vertex="1" parent="1">
          <mxGeometry x="180" y="788" width="100" height="40" as="geometry" />
        </mxCell>
        <mxCell id="DPFkHbnq-CvgyuaQDvC9-17" value="&lt;font style=&quot;font-size: 16px;&quot;&gt;洛阳机房&lt;/font&gt;" style="text;html=1;align=center;verticalAlign=middle;whiteSpace=wrap;rounded=0;" vertex="1" parent="1">
          <mxGeometry x="195" y="530" width="70" height="30" as="geometry" />
        </mxCell>
        <mxCell id="DPFkHbnq-CvgyuaQDvC9-18" value="" style="edgeStyle=orthogonalEdgeStyle;rounded=0;orthogonalLoop=1;jettySize=auto;html=1;entryX=0.5;entryY=0;entryDx=0;entryDy=0;exitX=0.5;exitY=1;exitDx=0;exitDy=0;" edge="1" parent="1" source="DPFkHbnq-CvgyuaQDvC9-19" target="DPFkHbnq-CvgyuaQDvC9-15">
          <mxGeometry relative="1" as="geometry">
            <mxPoint x="230" y="700" as="targetPoint" />
          </mxGeometry>
        </mxCell>
        <mxCell id="DPFkHbnq-CvgyuaQDvC9-19" value="应用" style="rounded=1;whiteSpace=wrap;html=1;" vertex="1" parent="1">
          <mxGeometry x="180" y="559" width="100" height="40" as="geometry" />
        </mxCell>
        <mxCell id="DPFkHbnq-CvgyuaQDvC9-20" value="" style="edgeStyle=orthogonalEdgeStyle;rounded=0;orthogonalLoop=1;jettySize=auto;html=1;" edge="1" parent="1" source="DPFkHbnq-CvgyuaQDvC9-21" target="DPFkHbnq-CvgyuaQDvC9-16">
          <mxGeometry relative="1" as="geometry" />
        </mxCell>
        <mxCell id="DPFkHbnq-CvgyuaQDvC9-21" value="redis" style="rounded=1;whiteSpace=wrap;html=1;" vertex="1" parent="1">
          <mxGeometry x="180" y="715" width="100" height="40" as="geometry" />
        </mxCell>
        <mxCell id="DPFkHbnq-CvgyuaQDvC9-22" value="" style="rounded=0;whiteSpace=wrap;html=1;" vertex="1" parent="1">
          <mxGeometry x="414" y="530" width="160" height="310" as="geometry" />
        </mxCell>
        <mxCell id="DPFkHbnq-CvgyuaQDvC9-23" value="" style="edgeStyle=orthogonalEdgeStyle;rounded=0;orthogonalLoop=1;jettySize=auto;html=1;" edge="1" parent="1" source="DPFkHbnq-CvgyuaQDvC9-24" target="DPFkHbnq-CvgyuaQDvC9-30">
          <mxGeometry relative="1" as="geometry" />
        </mxCell>
        <mxCell id="DPFkHbnq-CvgyuaQDvC9-24" value="本地缓存" style="rounded=1;whiteSpace=wrap;html=1;" vertex="1" parent="1">
          <mxGeometry x="444" y="640" width="100" height="40" as="geometry" />
        </mxCell>
        <mxCell id="DPFkHbnq-CvgyuaQDvC9-26" value="&lt;font style=&quot;font-size: 16px;&quot;&gt;淮安机房&lt;/font&gt;" style="text;html=1;align=center;verticalAlign=middle;whiteSpace=wrap;rounded=0;" vertex="1" parent="1">
          <mxGeometry x="459" y="530" width="70" height="30" as="geometry" />
        </mxCell>
        <mxCell id="DPFkHbnq-CvgyuaQDvC9-27" value="" style="edgeStyle=orthogonalEdgeStyle;rounded=0;orthogonalLoop=1;jettySize=auto;html=1;entryX=0.5;entryY=0;entryDx=0;entryDy=0;exitX=0.5;exitY=1;exitDx=0;exitDy=0;" edge="1" parent="1" source="DPFkHbnq-CvgyuaQDvC9-28" target="DPFkHbnq-CvgyuaQDvC9-24">
          <mxGeometry relative="1" as="geometry">
            <mxPoint x="494" y="700" as="targetPoint" />
          </mxGeometry>
        </mxCell>
        <mxCell id="DPFkHbnq-CvgyuaQDvC9-28" value="应用" style="rounded=1;whiteSpace=wrap;html=1;" vertex="1" parent="1">
          <mxGeometry x="444" y="559" width="100" height="40" as="geometry" />
        </mxCell>
        <mxCell id="DPFkHbnq-CvgyuaQDvC9-32" style="edgeStyle=orthogonalEdgeStyle;rounded=0;orthogonalLoop=1;jettySize=auto;html=1;entryX=1;entryY=0.5;entryDx=0;entryDy=0;" edge="1" parent="1" source="DPFkHbnq-CvgyuaQDvC9-30" target="DPFkHbnq-CvgyuaQDvC9-19">
          <mxGeometry relative="1" as="geometry" />
        </mxCell>
        <mxCell id="DPFkHbnq-CvgyuaQDvC9-33" value="&lt;font style=&quot;font-size: 16px;&quot;&gt;接口调用&lt;/font&gt;" style="edgeLabel;html=1;align=center;verticalAlign=middle;resizable=0;points=[];" vertex="1" connectable="0" parent="DPFkHbnq-CvgyuaQDvC9-32">
          <mxGeometry x="-0.0543" y="1" relative="1" as="geometry">
            <mxPoint as="offset" />
          </mxGeometry>
        </mxCell>
        <mxCell id="DPFkHbnq-CvgyuaQDvC9-30" value="redis" style="rounded=1;whiteSpace=wrap;html=1;" vertex="1" parent="1">
          <mxGeometry x="444" y="715" width="100" height="45" as="geometry" />
        </mxCell>
      </root>
    </mxGraphModel>
  </diagram>
  <diagram id="3_VQasCy4BQzjLlJmnSR" name="证书调用链路">
    <mxGraphModel dx="1570" dy="991" grid="1" gridSize="10" guides="1" tooltips="1" connect="1" arrows="1" fold="1" page="1" pageScale="1" pageWidth="827" pageHeight="1169" math="0" shadow="0">
      <root>
        <mxCell id="0" />
        <mxCell id="1" parent="0" />
        <mxCell id="JPDukT3ssHLxb2YjCRBv-1" value="" style="rounded=0;whiteSpace=wrap;html=1;fontSize=16;" vertex="1" parent="1">
          <mxGeometry x="160" y="160" width="600" height="260" as="geometry" />
        </mxCell>
        <mxCell id="JPDukT3ssHLxb2YjCRBv-6" value="" style="edgeStyle=orthogonalEdgeStyle;rounded=0;orthogonalLoop=1;jettySize=auto;html=1;fontSize=16;dashed=1;" edge="1" parent="1" source="JPDukT3ssHLxb2YjCRBv-2" target="JPDukT3ssHLxb2YjCRBv-4">
          <mxGeometry relative="1" as="geometry" />
        </mxCell>
        <mxCell id="JPDukT3ssHLxb2YjCRBv-7" style="edgeStyle=orthogonalEdgeStyle;rounded=0;orthogonalLoop=1;jettySize=auto;html=1;fontSize=16;dashed=1;" edge="1" parent="1" source="JPDukT3ssHLxb2YjCRBv-2" target="JPDukT3ssHLxb2YjCRBv-3">
          <mxGeometry relative="1" as="geometry" />
        </mxCell>
        <mxCell id="JPDukT3ssHLxb2YjCRBv-8" style="edgeStyle=orthogonalEdgeStyle;rounded=0;orthogonalLoop=1;jettySize=auto;html=1;fontSize=16;dashed=1;" edge="1" parent="1" source="JPDukT3ssHLxb2YjCRBv-2" target="JPDukT3ssHLxb2YjCRBv-5">
          <mxGeometry relative="1" as="geometry" />
        </mxCell>
        <mxCell id="JPDukT3ssHLxb2YjCRBv-24" style="edgeStyle=orthogonalEdgeStyle;rounded=0;orthogonalLoop=1;jettySize=auto;html=1;" edge="1" parent="1" source="JPDukT3ssHLxb2YjCRBv-2" target="JPDukT3ssHLxb2YjCRBv-12">
          <mxGeometry relative="1" as="geometry" />
        </mxCell>
        <mxCell id="JPDukT3ssHLxb2YjCRBv-26" value="&lt;font style=&quot;font-size: 16px;&quot;&gt;调用&lt;/font&gt;" style="edgeLabel;html=1;align=center;verticalAlign=middle;resizable=0;points=[];" vertex="1" connectable="0" parent="JPDukT3ssHLxb2YjCRBv-24">
          <mxGeometry x="0.508" y="-1" relative="1" as="geometry">
            <mxPoint x="9" y="-15" as="offset" />
          </mxGeometry>
        </mxCell>
        <mxCell id="JPDukT3ssHLxb2YjCRBv-27" style="edgeStyle=orthogonalEdgeStyle;rounded=0;orthogonalLoop=1;jettySize=auto;html=1;exitX=0;exitY=0.5;exitDx=0;exitDy=0;entryX=1;entryY=0.5;entryDx=0;entryDy=0;" edge="1" parent="1" source="JPDukT3ssHLxb2YjCRBv-2" target="JPDukT3ssHLxb2YjCRBv-11">
          <mxGeometry relative="1" as="geometry">
            <Array as="points">
              <mxPoint x="150" y="220" />
              <mxPoint x="150" y="290" />
            </Array>
          </mxGeometry>
        </mxCell>
        <mxCell id="JPDukT3ssHLxb2YjCRBv-32" style="edgeStyle=orthogonalEdgeStyle;rounded=0;orthogonalLoop=1;jettySize=auto;html=1;exitX=0.5;exitY=1;exitDx=0;exitDy=0;" edge="1" parent="1" source="JPDukT3ssHLxb2YjCRBv-2" target="JPDukT3ssHLxb2YjCRBv-10">
          <mxGeometry relative="1" as="geometry">
            <Array as="points">
              <mxPoint x="560" y="250" />
            </Array>
          </mxGeometry>
        </mxCell>
        <mxCell id="JPDukT3ssHLxb2YjCRBv-2" value="ummp-gateway" style="rounded=0;whiteSpace=wrap;html=1;fontSize=16;" vertex="1" parent="1">
          <mxGeometry x="220" y="190" width="490" height="60" as="geometry" />
        </mxCell>
        <mxCell id="JPDukT3ssHLxb2YjCRBv-3" value="统一支付证书" style="rounded=0;whiteSpace=wrap;html=1;fontSize=16;" vertex="1" parent="1">
          <mxGeometry x="220" y="320" width="120" height="60" as="geometry" />
        </mxCell>
        <mxCell id="JPDukT3ssHLxb2YjCRBv-4" value="一级能开证书" style="rounded=0;whiteSpace=wrap;html=1;fontSize=16;" vertex="1" parent="1">
          <mxGeometry x="405" y="320" width="120" height="60" as="geometry" />
        </mxCell>
        <mxCell id="JPDukT3ssHLxb2YjCRBv-5" value="商城能开证书" style="rounded=0;whiteSpace=wrap;html=1;fontSize=16;" vertex="1" parent="1">
          <mxGeometry x="590" y="320" width="120" height="60" as="geometry" />
        </mxCell>
        <mxCell id="JPDukT3ssHLxb2YjCRBv-9" value="read" style="text;html=1;align=center;verticalAlign=middle;whiteSpace=wrap;rounded=0;fontSize=16;" vertex="1" parent="1">
          <mxGeometry x="454" y="253" width="60" height="30" as="geometry" />
        </mxCell>
        <mxCell id="JPDukT3ssHLxb2YjCRBv-10" value="中国移动一级能开" style="rounded=0;whiteSpace=wrap;html=1;fontSize=16;" vertex="1" parent="1">
          <mxGeometry x="165" y="470" width="600" height="60" as="geometry" />
        </mxCell>
        <mxCell id="JPDukT3ssHLxb2YjCRBv-11" value="统一支付" style="rounded=0;whiteSpace=wrap;html=1;fontSize=16;" vertex="1" parent="1">
          <mxGeometry x="15" y="160" width="80" height="260" as="geometry" />
        </mxCell>
        <mxCell id="JPDukT3ssHLxb2YjCRBv-12" value="商城能开" style="rounded=0;whiteSpace=wrap;html=1;fontSize=16;" vertex="1" parent="1">
          <mxGeometry x="827" y="160" width="80" height="260" as="geometry" />
        </mxCell>
        <mxCell id="JPDukT3ssHLxb2YjCRBv-19" style="edgeStyle=orthogonalEdgeStyle;rounded=0;orthogonalLoop=1;jettySize=auto;html=1;" edge="1" parent="1" source="JPDukT3ssHLxb2YjCRBv-14" target="JPDukT3ssHLxb2YjCRBv-2">
          <mxGeometry relative="1" as="geometry" />
        </mxCell>
        <mxCell id="JPDukT3ssHLxb2YjCRBv-14" value="互联网渠道" style="rounded=0;whiteSpace=wrap;html=1;fontSize=16;" vertex="1" parent="1">
          <mxGeometry x="160" y="30" width="120" height="60" as="geometry" />
        </mxCell>
        <mxCell id="JPDukT3ssHLxb2YjCRBv-20" style="edgeStyle=orthogonalEdgeStyle;rounded=0;orthogonalLoop=1;jettySize=auto;html=1;entryX=0.5;entryY=0;entryDx=0;entryDy=0;" edge="1" parent="1" source="JPDukT3ssHLxb2YjCRBv-15" target="JPDukT3ssHLxb2YjCRBv-2">
          <mxGeometry relative="1" as="geometry" />
        </mxCell>
        <mxCell id="JPDukT3ssHLxb2YjCRBv-15" value="自有渠道" style="rounded=0;whiteSpace=wrap;html=1;fontSize=16;" vertex="1" parent="1">
          <mxGeometry x="310" y="30" width="120" height="60" as="geometry" />
        </mxCell>
        <mxCell id="JPDukT3ssHLxb2YjCRBv-21" style="edgeStyle=orthogonalEdgeStyle;rounded=0;orthogonalLoop=1;jettySize=auto;html=1;entryX=0.5;entryY=0;entryDx=0;entryDy=0;" edge="1" parent="1" source="JPDukT3ssHLxb2YjCRBv-16" target="JPDukT3ssHLxb2YjCRBv-2">
          <mxGeometry relative="1" as="geometry" />
        </mxCell>
        <mxCell id="JPDukT3ssHLxb2YjCRBv-16" value="中国移动APP" style="rounded=0;whiteSpace=wrap;html=1;fontSize=16;" vertex="1" parent="1">
          <mxGeometry x="460" y="30" width="120" height="60" as="geometry" />
        </mxCell>
        <mxCell id="JPDukT3ssHLxb2YjCRBv-22" style="edgeStyle=orthogonalEdgeStyle;rounded=0;orthogonalLoop=1;jettySize=auto;html=1;entryX=0.5;entryY=0;entryDx=0;entryDy=0;" edge="1" parent="1" source="JPDukT3ssHLxb2YjCRBv-17" target="JPDukT3ssHLxb2YjCRBv-2">
          <mxGeometry relative="1" as="geometry" />
        </mxCell>
        <mxCell id="JPDukT3ssHLxb2YjCRBv-17" value="权益" style="rounded=0;whiteSpace=wrap;html=1;fontSize=16;" vertex="1" parent="1">
          <mxGeometry x="640" y="30" width="120" height="60" as="geometry" />
        </mxCell>
        <mxCell id="JPDukT3ssHLxb2YjCRBv-23" style="edgeStyle=orthogonalEdgeStyle;rounded=0;orthogonalLoop=1;jettySize=auto;html=1;entryX=0.5;entryY=0;entryDx=0;entryDy=0;" edge="1" parent="1" source="JPDukT3ssHLxb2YjCRBv-18" target="JPDukT3ssHLxb2YjCRBv-2">
          <mxGeometry relative="1" as="geometry" />
        </mxCell>
        <mxCell id="JPDukT3ssHLxb2YjCRBv-18" value="。。" style="rounded=0;whiteSpace=wrap;html=1;fontSize=16;" vertex="1" parent="1">
          <mxGeometry x="600" y="30" width="23" height="60" as="geometry" />
        </mxCell>
        <mxCell id="JPDukT3ssHLxb2YjCRBv-30" value="&lt;font style=&quot;font-size: 16px;&quot;&gt;调用&lt;/font&gt;" style="edgeLabel;html=1;align=center;verticalAlign=middle;resizable=0;points=[];" vertex="1" connectable="0" parent="1">
          <mxGeometry x="121" y="276" as="geometry" />
        </mxCell>
        <mxCell id="JPDukT3ssHLxb2YjCRBv-33" value="&lt;font style=&quot;font-size: 16px;&quot;&gt;调用&lt;/font&gt;" style="edgeLabel;html=1;align=center;verticalAlign=middle;resizable=0;points=[];" vertex="1" connectable="0" parent="1">
          <mxGeometry x="810" y="290" as="geometry">
            <mxPoint x="-232" y="110" as="offset" />
          </mxGeometry>
        </mxCell>
      </root>
    </mxGraphModel>
  </diagram>
</mxfile>
